<svg
      xmlns="http://www.w3.org/2000/svg"
      viewBox="0 0 20 20"
      role="img"
      fill="none"
    >
      <path
        fillRule="evenodd"
        clipRule="evenodd"
        d="M6.45203 3.004C6.56477 3.09379 6.64926 3.21417 6.69537 3.35073C6.74148 3.48729 6.74726 3.63424 6.71203 3.774C6.37979 5.07796 6.43044 6.45006 6.8579 7.72598C7.28536 9.00191 8.07152 10.1276 9.12225 10.9682C10.173 11.8089 11.4437 12.3289 12.7824 12.4659C14.121 12.603 15.4708 12.3513 16.67 11.741C16.7985 11.6757 16.943 11.6487 17.0864 11.6634C17.2297 11.678 17.3658 11.7337 17.4784 11.8237C17.591 11.9136 17.6752 12.0342 17.7211 12.1708C17.7669 12.3074 17.7725 12.4543 17.737 12.594C17.3862 13.9713 16.6957 15.2386 15.7285 16.2801C14.7614 17.3216 13.5486 18.1039 12.201 18.5555C10.8534 19.0071 9.41402 19.1136 8.01462 18.8653C6.61523 18.6169 5.30045 18.0216 4.19056 17.1338C3.08068 16.246 2.21112 15.0941 1.66144 13.7835C1.11176 12.4728 0.899512 11.0452 1.0441 9.63132C1.18869 8.21742 1.68551 6.86236 2.48911 5.69008C3.2927 4.51781 4.37742 3.56575 5.64403 2.921C5.77246 2.85578 5.91695 2.82893 6.06024 2.84365C6.20352 2.85837 6.33954 2.91403 6.45203 3.004V3.004Z"
      />
      <path d="M14.979 1.801C14.9331 1.57494 14.8105 1.37171 14.6319 1.22573C14.4533 1.07975 14.2297 1 13.999 1C13.7684 1 13.5448 1.07975 13.3662 1.22573C13.1876 1.37171 13.0649 1.57494 13.019 1.801L12.779 2.993C12.7404 3.18663 12.6454 3.3645 12.5059 3.5042C12.3664 3.64389 12.1886 3.73916 11.995 3.778L10.803 4.016C10.5759 4.06092 10.3714 4.18328 10.2244 4.36218C10.0774 4.54109 9.99704 4.76546 9.99704 4.997C9.99704 5.22855 10.0774 5.45292 10.2244 5.63182C10.3714 5.81073 10.5759 5.93308 10.803 5.978L11.995 6.216C12.1888 6.25466 12.3668 6.34986 12.5065 6.48957C12.6462 6.62928 12.7414 6.80724 12.78 7.001L13.018 8.193C13.063 8.42015 13.1853 8.62467 13.3642 8.77166C13.5431 8.91864 13.7675 8.99899 13.999 8.99899C14.2306 8.99899 14.4549 8.91864 14.6339 8.77166C14.8128 8.62467 14.9351 8.42015 14.98 8.193L15.218 7.001C15.2567 6.80724 15.3519 6.62928 15.4916 6.48957C15.6313 6.34986 15.8093 6.25466 16.003 6.216L17.195 5.978C17.4222 5.93308 17.6267 5.81073 17.7737 5.63182C17.9207 5.45292 18.001 5.22855 18.001 4.997C18.001 4.76546 17.9207 4.54109 17.7737 4.36218C17.6267 4.18328 17.4222 4.06092 17.195 4.016L16.003 3.778C15.8093 3.73934 15.6313 3.64415 15.4916 3.50444C15.3519 3.36473 15.2567 3.18676 15.218 2.993L14.98 1.801H14.979Z" />
    </svg>